<?xml version="1.0" encoding="utf-8"?>
<!-- Generator: Adobe Illustrator 19.1.0, SVG Export Plug-In . SVG Version: 6.00 Build 0)  -->
<svg version="1.1" id="Layer_1" xmlns="http://www.w3.org/2000/svg" xmlns:xlink="http://www.w3.org/1999/xlink" x="0px" y="0px"
	 viewBox="-298 273 194 67" style="enable-background:new -298 273 194 67;" xml:space="preserve">
<style type="text/css">
	.st0{fill:#FFFFFF;}
	.st1{fill:#1CA7DC;}
	.st2{fill-rule:evenodd;clip-rule:evenodd;fill:#FFFFFF;}
</style>
<g id="Layer_1_1_">
</g>
<g>
	<g>
		<path class="st0" d="M-236.3,302.6h-2.2c-2.4,0-4,1.4-4,3.7v1.7h-2.2c-0.2,0-0.3,0.1-0.3,0.3v2.5c0,0.2,0.2,0.3,0.3,0.3h2.2v6.2
			c0,0.2,0.2,0.3,0.3,0.3h2.8c0.2,0,0.3-0.1,0.3-0.3V311h2.5c0.2,0,0.3-0.1,0.3-0.3v-2.5c0-0.1,0-0.2-0.1-0.2c-0.1,0,0.1,0,0,0h-2.6
			v-1.4c0-0.7,0.2-1,1.2-1h1.5c0.2,0,0.3-0.1,0.3-0.3V303C-236,302.7-236.1,302.6-236.3,302.6z M-200.5,303.8
			c-0.7,0.4-1.5,0.7-2.2,0.8c-0.7-0.7-1.5-1.1-2.5-1.1s-1.8,0.4-2.5,1c-0.7,0.7-1,1.5-1,2.5c0,0.3,0,0.6,0.1,0.8
			c-2.9-0.1-5.3-1.3-7.2-3.7c-0.3,0.6-0.5,1.2-0.5,1.8c0,1.2,0.5,2.2,1.6,3c-0.6-0.1-1.1-0.2-1.6-0.5c0,0.9,0.3,1.6,0.8,2.3
			c0.5,0.6,1.2,1.1,2,1.2c-0.3,0.1-0.6,0.1-0.9,0.1s-0.5,0-0.6-0.1c0.2,0.7,0.6,1.3,1.2,1.8c0.6,0.5,1.3,0.7,2,0.7
			c-1.3,1-2.7,1.5-4.3,1.5c-0.4,0-0.7,0-0.9,0c1.6,1.1,3.4,1.6,5.4,1.6s3.8-0.5,5.4-1.6c1.6-1,2.7-2.3,3.4-3.8
			c0.7-1.5,1.1-3.1,1.1-4.7V307c0.7-0.5,1.3-1.2,1.7-1.8c-0.6,0.3-1.3,0.5-2,0.6C-201.2,305.3-200.7,304.7-200.5,303.8z
			 M-171.6,303.6h-9.7c-0.5,0-0.8,0.2-1.2,0.5c-0.3,0.3-0.5,0.7-0.5,1.2v9.7c0,0.5,0.2,0.8,0.5,1.2c0.3,0.3,0.7,0.5,1.2,0.5h9.7
			c0.5,0,0.8-0.2,1.2-0.5c0.3-0.3,0.5-0.7,0.5-1.2v-9.7c0-0.5-0.2-0.8-0.5-1.2C-170.8,303.7-171.2,303.6-171.6,303.6z M-178.3,308.2
			c0.5-0.5,1.1-0.7,1.8-0.7c0.7,0,1.3,0.2,1.8,0.7s0.8,1.1,0.8,1.8s-0.3,1.3-0.8,1.8s-1.1,0.7-1.8,0.7c-0.7,0-1.3-0.2-1.8-0.7
			s-0.8-1.1-0.8-1.8S-178.8,308.7-178.3,308.2z M-171.4,314.5c0,0.1-0.1,0.3-0.2,0.4c-0.1,0.1-0.2,0.1-0.4,0.1h-9
			c-0.1,0-0.3,0-0.4-0.1c-0.1-0.1-0.1-0.2-0.1-0.4V309h1.2c-0.1,0.4-0.2,0.7-0.2,1.1c0,1.1,0.4,2,1.2,2.8c0.8,0.8,1.7,1.1,2.9,1.1
			c0.7,0,1.4-0.2,2-0.5c0.6-0.4,1.1-0.8,1.5-1.4c0.4-0.6,0.5-1.3,0.5-2c0-0.4-0.1-0.8-0.2-1.1h1.1v5.5H-171.4z M-171.4,307
			c0,0.2-0.1,0.3-0.2,0.4c-0.1,0.1-0.3,0.2-0.4,0.2h-1.5c-0.2,0-0.3-0.1-0.4-0.2c-0.1-0.1-0.2-0.3-0.2-0.4v-1.4
			c0-0.2,0.1-0.3,0.2-0.4c0.1-0.1,0.3-0.2,0.4-0.2h1.5c0.2,0,0.3,0.1,0.4,0.2c0.1,0.1,0.2,0.3,0.2,0.4V307z M-138.7,303.8
			c-4.6-0.3-5.9-0.4-10.6,0c-1.4,0.1-2.4,1.8-2.5,3c-0.2,2.6-0.2,4,0,6.6c0.1,1.2,1.1,2.8,2.5,3c4.7,0.3,6.1,0.3,10.6,0
			c1.4-0.2,2.4-1.8,2.5-3c0.2-2.6,0.2-4.2,0-6.7C-136.3,305.4-137.1,303.9-138.7,303.8z M-146.5,313.3v-6.6l6.2,3.3L-146.5,313.3z
			 M-107.9,304.4c-2.5-2.4-6.6-2.4-9.2,0c-2.5,2.4-2.6,6.4,0,8.8l4.6,4.4l4.6-4.4C-105.3,310.7-105.3,306.8-107.9,304.4z
			 M-112.5,314.1c-3.1,0-5.6-2.4-5.6-5.3c0-2.9,2.5-5.3,5.6-5.3s5.6,2.4,5.6,5.3C-106.9,311.7-109.4,314.1-112.5,314.1z
			 M-109.1,307.2c-0.7,0-1.4-0.1-2-0.1l0,0c-0.3-0.6-0.5-1.3-0.8-1.9c-0.1-0.3-0.6-0.3-0.8-0.1c-0.1,0.1-0.2,0.2-0.2,0.3
			c-0.3,0.6-0.5,1.2-0.8,1.8c-0.7,0.1-1.5,0.1-2.2,0.2c-0.3,0-0.5,0.4-0.4,0.7c0,0.1,0.2,0.2,0.3,0.3c0.5,0.4,1,0.8,1.5,1.2
			c-0.2,0.7-0.4,1.4-0.5,2.1c0,0.2,0.1,0.4,0.2,0.5c0.2,0.1,0.4,0.1,0.6,0c0.6-0.4,1.2-0.7,1.8-1.1c0.1,0,0.1,0,0.1,0.1
			c0.5,0.3,1.1,0.6,1.6,1c0.1,0.1,0.2,0.1,0.3,0.1c0.4,0,0.6-0.4,0.5-0.7c-0.2-0.6-0.3-1.3-0.5-1.9l0,0c0.5-0.4,1.1-0.9,1.6-1.3
			c0.2-0.1,0.2-0.4,0.1-0.6C-108.7,307.3-108.9,307.2-109.1,307.2z"/>
	</g>
</g>
<g>
	<g>
		<path class="st1" d="M-236.3,320.5h-2.2c-2.4,0-4,1.4-4,3.7v1.7h-2.2c-0.2,0-0.3,0.1-0.3,0.3v2.5c0,0.2,0.2,0.3,0.3,0.3h2.2v6.2
			c0,0.2,0.2,0.3,0.3,0.3h2.8c0.2,0,0.3-0.1,0.3-0.3V329h2.5c0.2,0,0.3-0.1,0.3-0.3v-2.5c0-0.1,0-0.2-0.1-0.2
			c-0.1-0.1-0.2-0.1-0.2-0.1h-2.4v-1.4c0-0.7,0.2-1,1.2-1h1.5c0.2,0,0.3-0.1,0.3-0.3v-2.3C-236,320.6-236.1,320.5-236.3,320.5z
			 M-200.5,321.7c-0.7,0.4-1.5,0.7-2.2,0.8c-0.7-0.7-1.5-1.1-2.5-1.1s-1.8,0.4-2.5,1c-0.7,0.7-1,1.5-1,2.5c0,0.3,0,0.6,0.1,0.8
			c-2.9-0.1-5.3-1.3-7.2-3.7c-0.3,0.6-0.5,1.2-0.5,1.8c0,1.2,0.5,2.2,1.6,3c-0.6-0.1-1.1-0.2-1.6-0.5c0,0.9,0.3,1.6,0.8,2.3
			c0.5,0.6,1.2,1.1,2,1.2c-0.3,0.2-0.6,0.2-0.9,0.2c-0.3,0-0.5,0-0.6-0.1c0.2,0.7,0.6,1.3,1.2,1.8s1.3,0.7,2,0.7
			c-1.3,1-2.7,1.5-4.3,1.5c-0.4,0-0.7,0-0.9,0c1.6,1.1,3.4,1.6,5.4,1.6s3.8-0.5,5.4-1.6c1.6-1,2.7-2.3,3.4-3.8s1.1-3.1,1.1-4.7V325
			c0.7-0.5,1.3-1.2,1.7-1.8c-0.6,0.3-1.3,0.5-2,0.6C-201.2,323.2-200.7,322.6-200.5,321.7z M-171.6,321.5h-9.7
			c-0.5,0-0.8,0.2-1.2,0.5c-0.3,0.3-0.5,0.7-0.5,1.2v9.7c0,0.5,0.2,0.8,0.5,1.2c0.3,0.3,0.7,0.5,1.2,0.5h9.7c0.5,0,0.8-0.2,1.2-0.5
			c0.3-0.3,0.5-0.7,0.5-1.2v-9.7c0-0.5-0.2-0.8-0.5-1.2C-170.8,321.6-171.2,321.5-171.6,321.5z M-178.3,326.2
			c0.5-0.5,1.1-0.7,1.8-0.7c0.7,0,1.3,0.2,1.8,0.7s0.8,1.1,0.8,1.8s-0.3,1.3-0.8,1.8s-1.1,0.7-1.8,0.7c-0.7,0-1.3-0.2-1.8-0.7
			s-0.8-1.1-0.8-1.8C-179.1,327.2-178.8,326.7-178.3,326.2z M-171.4,332.5c0,0.1-0.1,0.3-0.2,0.4c-0.1,0.1-0.2,0.1-0.4,0.1h-9
			c-0.1,0-0.3,0-0.4-0.1c-0.1-0.1-0.1-0.2-0.1-0.4V327h1.2c-0.1,0.4-0.2,0.7-0.2,1.1c0,1.1,0.4,2,1.2,2.8c0.8,0.8,1.7,1.1,2.9,1.1
			c0.7,0,1.4-0.2,2-0.5c0.6-0.3,1.1-0.8,1.5-1.4c0.4-0.6,0.5-1.3,0.5-2c0-0.4-0.1-0.8-0.2-1.1h1.1v5.5H-171.4z M-171.4,324.9
			c0,0.2-0.1,0.3-0.2,0.4c-0.1,0.1-0.3,0.2-0.4,0.2h-1.5c-0.2,0-0.3-0.1-0.4-0.2c-0.1-0.1-0.2-0.3-0.2-0.4v-1.4
			c0-0.2,0.1-0.3,0.2-0.4c0.1-0.1,0.3-0.2,0.4-0.2h1.5c0.2,0,0.3,0.1,0.4,0.2c0.1,0.1,0.2,0.3,0.2,0.4V324.9z M-138.7,321.7
			c-4.6-0.3-5.9-0.4-10.6,0c-1.4,0.1-2.4,1.8-2.5,3c-0.2,2.6-0.2,4,0,6.6c0.1,1.2,1.1,2.8,2.5,3c4.7,0.3,6.1,0.3,10.6,0
			c1.4-0.2,2.4-1.8,2.5-3c0.2-2.6,0.2-4.2,0-6.7C-136.3,323.3-137.1,321.8-138.7,321.7z M-146.5,331.2v-6.6l6.2,3.3L-146.5,331.2z
			 M-107.9,322.3c-2.5-2.4-6.6-2.4-9.2,0c-2.5,2.4-2.6,6.4,0,8.8l4.6,4.4l4.6-4.4C-105.3,328.6-105.3,324.7-107.9,322.3z
			 M-112.5,332c-3.1,0-5.6-2.4-5.6-5.3c0-2.9,2.5-5.3,5.6-5.3s5.6,2.4,5.6,5.3C-106.9,329.6-109.4,332-112.5,332z M-109.1,325.1
			c-0.7,0-1.4-0.1-2-0.1l0,0c-0.3-0.6-0.5-1.3-0.8-1.9c-0.1-0.3-0.6-0.3-0.8-0.1c-0.1,0.1-0.2,0.2-0.2,0.3c-0.3,0.6-0.5,1.2-0.8,1.8
			c-0.7,0.1-1.5,0.1-2.2,0.2c-0.3,0-0.5,0.4-0.4,0.7c0,0.1,0.2,0.2,0.3,0.3c0.5,0.4,1,0.8,1.5,1.2c-0.2,0.7-0.4,1.4-0.5,2.1
			c0,0.2,0.1,0.4,0.2,0.5c0.2,0.1,0.4,0.1,0.6,0c0.6-0.4,1.2-0.7,1.8-1.1c0.1,0,0.1,0,0.1,0.1c0.5,0.3,1.1,0.6,1.6,1
			c0.1,0.1,0.2,0.1,0.3,0.1c0.4,0,0.6-0.4,0.5-0.7c-0.2-0.6-0.3-1.3-0.5-1.9l0,0c0.5-0.4,1.1-0.9,1.6-1.3c0.2-0.1,0.2-0.4,0.1-0.6
			C-108.7,325.3-108.9,325.1-109.1,325.1z"/>
	</g>
</g>
<g>
	<g>
		<path class="st0" d="M-284.9,302.9v-3.7c0,0-6.6,0.1-7.3,7.4h3.7C-288.6,306.6-288.8,303.1-284.9,302.9z M-290.3,307.4h-0.1h-0.1
			c-3.1,0-5.4,4.5-5.4,4.5l2.1,1c1.9-2.9,3-3.2,3.4-3.2c0.1,0,0.1,0,0.1,0s0,0,0.1,0c0.4,0,1.5,0.3,3.4,3.2l2.1-1
			C-284.9,311.9-287.2,307.4-290.3,307.4z M-258.4,306.3h3.7c-0.8-7.3-7.4-7.3-7.4-7.3v3.7C-258.3,302.9-258.4,306.3-258.4,306.3z
			 M-256.5,307.1h-0.1h-0.1c-3.1,0-5.4,4.5-5.4,4.5l2.1,1c1.9-2.9,3-3.2,3.4-3.2c0.1,0,0.1,0,0.1,0s0,0,0.1,0c0.4,0,1.5,0.3,3.4,3.2
			l2.1-1C-251,311.6-253.3,307.1-256.5,307.1z M-265.5,276.5h-7.4h-0.4h-0.4h-0.4h-7.3c-1.5,0-2.8,1.3-2.8,2.8l1,10.5
			c0,1.6,1.2,2.8,2.8,2.8l7,1.1l0,0l0,0l7-1.1c1.5,0,2.8-1.3,2.8-2.8l1-10.5C-262.8,277.8-264,276.5-265.5,276.5z M-278.7,289.3
			c-1.3,0-2.4-1.5-2.4-3.4s1.1-3.4,2.4-3.4c1.3,0,2.4,1.5,2.4,3.4S-277.4,289.3-278.7,289.3z M-268.2,289.3c-1.4,0-2.5-1-2.5-2.3
			s1.1-2.3,2.5-2.3c1.4,0,2.5,1,2.5,2.3S-266.9,289.3-268.2,289.3z M-266.9,324.7V323c0-0.2-0.2-0.4-0.4-0.4h-3.9
			c-0.2,0-0.4,0.2-0.4,0.4v1.7c0,0.2,0.2,0.4,0.4,0.4h3.9C-267,325.1-266.9,324.9-266.9,324.7z M-267.9,325.8c0-0.1-0.1-0.2-0.2-0.2
			h-2.2c-0.1,0-0.2,0.1-0.2,0.2v1c0,0.1,0.1,0.2,0.2,0.2h2.2c0.1,0,0.2-0.1,0.2-0.2V325.8z M-267.9,328.1c0-0.1-0.1-0.2-0.2-0.2
			h-2.2c-0.1,0-0.2,0.1-0.2,0.2v1c0,0.1,0.1,0.2,0.2,0.2h2.2c0.1,0,0.2-0.1,0.2-0.2V328.1z M-268.1,330.1h-2.2
			c-0.1,0-0.2,0.1-0.2,0.2v1c0,0.1,0.1,0.2,0.2,0.2h2.2c0.1,0,0.2-0.1,0.2-0.2v-1C-267.9,330.2-268,330.1-268.1,330.1z
			 M-275.5,324.7V323c0-0.2-0.2-0.4-0.4-0.4h-3.9c-0.2,0-0.4,0.2-0.4,0.4v1.7c0,0.2,0.2,0.4,0.4,0.4h3.9
			C-275.7,325.1-275.5,324.9-275.5,324.7z M-276.5,325.8c0-0.1-0.1-0.2-0.2-0.2h-2.3c-0.1,0-0.2,0.1-0.2,0.2v1
			c0,0.1,0.1,0.2,0.2,0.2h2.2c0.1,0,0.2-0.1,0.2-0.2v-1H-276.5z M-276.5,328.1c0-0.1-0.1-0.2-0.2-0.2h-2.3c-0.1,0-0.2,0.1-0.2,0.2v1
			c0,0.1,0.1,0.2,0.2,0.2h2.2c0.1,0,0.2-0.1,0.2-0.2v-1H-276.5z M-276.7,330.1h-2.3c-0.1,0-0.2,0.1-0.2,0.2v1c0,0.1,0.1,0.2,0.2,0.2
			h2.2c0.1,0,0.2-0.1,0.2-0.2v-1C-276.5,330.2-276.6,330.1-276.7,330.1z M-275,334.1h-0.4c-0.2-1.1-1.2-2-2.4-2
			c-1.2,0-2.1,0.9-2.4,2h-0.4c-0.3,0-0.5,0.2-0.5,0.4v1.6c0,0.2,0.2,0.4,0.5,0.4h5.6c0.3,0,0.5-0.2,0.5-0.4v-1.6
			C-274.5,334.3-274.7,334.1-275,334.1z M-266.4,334.1h-0.4c-0.2-1.1-1.2-2-2.4-2c-1.2,0-2.1,0.9-2.4,2h-0.4c-0.3,0-0.5,0.2-0.5,0.4
			v1.6c0,0.2,0.2,0.4,0.5,0.4h5.6c0.3,0,0.5-0.2,0.5-0.4v-1.6C-265.9,334.3-266.1,334.1-266.4,334.1z M-274.7,301.8l2.4,1l2.4-1
			l2.1,0.9v-2.1h-11.5v1.4l2.1,0.8L-274.7,301.8z M-267.8,303.5l-2.1-0.8l-2.4,1l-2.4-1l-2.4,1l-2.1-0.9v2.3h11.5L-267.8,303.5
			L-267.8,303.5z M-266.5,296.2h-5.5h-3h-5.5c-2.1,0-3.7,1.7-3.7,3.8l2.8,17.6c0,2.1,1.7,3.8,3.7,3.8h2.7h3h2.7
			c2.1,0,3.7-1.7,3.7-3.8l2.8-17.6C-262.8,297.9-264.5,296.2-266.5,296.2z M-278.7,311.5c-0.9,0-1.6-0.7-1.6-1.6s0.7-1.6,1.6-1.6
			c0.9,0,1.6,0.7,1.6,1.6S-277.8,311.5-278.7,311.5z M-267.1,305.8H-280v-5.9h12.9V305.8z"/>
	</g>
</g>
<g id="Winlogo">
	<polygon class="st0" points="-181,289.3 -181,281.2 -190.3,282.5 -190.3,289.3 	"/>
	<polygon class="st0" points="-191,282.6 -197.7,283.6 -197.7,289.3 -191,289.3 	"/>
	<polygon class="st0" points="-197.7,290 -197.7,295.7 -191,296.7 -191,290 	"/>
	<polygon class="st0" points="-190.3,296.8 -181,298.2 -181,290 -190.3,290 	"/>
</g>
<g>
	<path class="st0" d="M-166.3,280.4c1.4-1.8,3.3-1.8,3.3-1.8s0.3,1.7-1.1,3.3c-1.5,1.7-3.1,1.5-3.1,1.5S-167.5,282-166.3,280.4z"/>
	<path class="st0" d="M-167.1,284.5c0.7,0,2-1,3.7-1c2.9,0,4.1,2.1,4.1,2.1s-2.3,1.2-2.3,4c0,3.2,2.8,4.2,2.8,4.2s-2,5.5-4.6,5.5
		c-1.2,0-2.2-0.8-3.4-0.8c-1.3,0-2.6,0.9-3.5,0.9c-2.4,0-5.5-5.2-5.5-9.5c0-4.1,2.6-6.3,5-6.3C-169.1,283.6-167.9,284.5-167.1,284.5
		z"/>
</g>
<g>
	<g>
		<path class="st0" d="M-217.4,287.1v1.2h9.8l-1,5.5h-10.2l-3.1-10.9h-2.9v1.2h2l3.1,10.9h12.1l1.5-7.9H-217.4z M-218,296.2
			c-1,0-1.9,0.8-1.9,1.8s0.8,1.8,1.9,1.8c1,0,1.9-0.8,1.9-1.8C-216.2,297-217,296.2-218,296.2z M-218,298.6c-0.3,0-0.6-0.3-0.6-0.6
			s0.3-0.6,0.6-0.6c0.3,0,0.6,0.3,0.6,0.6C-217.4,298.4-217.7,298.6-218,298.6z M-210,296.2c-1,0-1.9,0.8-1.9,1.8s0.8,1.8,1.9,1.8
			c1,0,1.9-0.8,1.9-1.8S-209,296.2-210,296.2z M-210,298.6c-0.3,0-0.6-0.3-0.6-0.6s0.3-0.6,0.6-0.6c0.3,0,0.6,0.3,0.6,0.6
			C-209.4,298.4-209.7,298.6-210,298.6z"/>
	</g>
</g>
<g>
	<g>
		<g>
			<path class="st0" d="M-237.1,296.7c-3.8,0-6.9-3.1-6.9-6.9c0-3.8,3.1-6.9,6.9-6.9c3.8,0,6.9,3.1,6.9,6.9
				C-230.2,293.6-233.3,296.7-237.1,296.7z M-237.1,283.9c-3.2,0-5.8,2.6-5.8,5.8c0,3.2,2.6,5.8,5.8,5.8c3.2,0,5.8-2.6,5.8-5.8
				C-231.3,286.5-233.9,283.9-237.1,283.9z"/>
		</g>
	</g>
	<g>
		<path class="st0" d="M-228.6,299.9c-0.4,0-0.8-0.2-1.1-0.5l-3-2.9l0.7-0.8l3,2.9c0.2,0.2,0.6,0.2,0.8,0c0.1-0.1,0.2-0.2,0.2-0.4
			c0-0.2-0.1-0.3-0.2-0.4l-2.9-3l0.8-0.7l2.9,3c0.3,0.3,0.5,0.7,0.5,1.1c0,0.4-0.2,0.8-0.5,1.1
			C-227.8,299.7-228.2,299.9-228.6,299.9z"/>
	</g>
</g>
<g id="Icon_Phone_3_">
	<g>
		<path class="st2" d="M-141.4,291.2c-0.9,0.6-1.6,1.8-2.1,2.8c-2.8-1.3-5.1-3.5-6.4-6.4c1-0.5,2.2-1.2,2.8-2.1
			c-0.2-2-1.3-3.9-2.8-5c-2,0.9-3.5,2.6-3.5,5c0,6.4,5.7,12,11.7,12c2.4,0,4.4-1.5,5.3-3.5C-137.4,292.5-139.4,291.4-141.4,291.2z"
			/>
	</g>
</g>
</svg>
