<?xml version="1.0" encoding="utf-8"?>
<!-- Generator: Adobe Illustrator 19.1.0, SVG Export Plug-In . SVG Version: 6.00 Build 0)  -->
<svg version="1.1" id="Layer_1" xmlns="http://www.w3.org/2000/svg" xmlns:xlink="http://www.w3.org/1999/xlink" x="0px" y="0px"
	 viewBox="-62 33 194 67" style="enable-background:new -62 33 194 67;" xml:space="preserve">
<style type="text/css">
	.st0{fill:#FFFFFF;}
	.st1{fill:#1CA7DC;}
</style>
<g id="Layer_1_1_">
</g>
<g>
	<g>
		<g>
			<path class="st0" d="M-0.4,62.6h-2.2c-2.4,0-4,1.4-4,3.7V68h-2.2c-0.2,0-0.3,0.1-0.3,0.3v2.5c0,0.2,0.2,0.3,0.3,0.3h2.2v6.2
				c0,0.2,0.2,0.3,0.3,0.3h2.8c0.2,0,0.3-0.1,0.3-0.3V71h2.5c0.2,0,0.3-0.1,0.3-0.3v-2.5c0-0.1,0-0.2-0.1-0.2s0.1,0,0,0h-2.6v-1.4
				c0-0.7,0.2-1,1.2-1h1.5c0.2,0,0.3-0.1,0.3-0.3V63C-0.1,62.7-0.2,62.6-0.4,62.6z M35.4,63.8c-0.7,0.4-1.5,0.7-2.2,0.8
				c-0.7-0.7-1.5-1.1-2.5-1.1s-1.8,0.4-2.5,1c-0.7,0.7-1,1.5-1,2.5c0,0.3,0,0.6,0.1,0.8c-2.9-0.1-5.3-1.3-7.2-3.7
				c-0.3,0.6-0.5,1.2-0.5,1.8c0,1.2,0.5,2.2,1.6,3c-0.6-0.1-1.1-0.2-1.6-0.5c0,0.9,0.3,1.6,0.8,2.3c0.5,0.6,1.2,1.1,2,1.2
				C22.1,72,21.8,72,21.5,72s-0.5,0-0.6-0.1c0.2,0.7,0.6,1.3,1.2,1.8s1.3,0.7,2,0.7c-1.3,1-2.7,1.5-4.3,1.5c-0.4,0-0.7,0-0.9,0
				c1.6,1.1,3.4,1.6,5.4,1.6s3.8-0.5,5.4-1.6c1.6-1,2.7-2.3,3.4-3.8c0.7-1.5,1.1-3.1,1.1-4.7V67c0.7-0.5,1.3-1.2,1.7-1.8
				c-0.6,0.3-1.3,0.5-2,0.6C34.7,65.3,35.2,64.7,35.4,63.8z M64.3,63.6h-9.7c-0.5,0-0.8,0.2-1.2,0.5c-0.3,0.3-0.5,0.7-0.5,1.2V75
				c0,0.5,0.2,0.8,0.5,1.2c0.3,0.3,0.7,0.5,1.2,0.5h9.7c0.5,0,0.8-0.2,1.2-0.5c0.3-0.3,0.5-0.7,0.5-1.2v-9.7c0-0.5-0.2-0.8-0.5-1.2
				C65.1,63.7,64.7,63.6,64.3,63.6z M57.6,68.2c0.5-0.5,1.1-0.7,1.8-0.7c0.7,0,1.3,0.2,1.8,0.7S62,69.3,62,70s-0.3,1.3-0.8,1.8
				s-1.1,0.7-1.8,0.7c-0.7,0-1.3-0.2-1.8-0.7s-0.8-1.1-0.8-1.8S57.1,68.7,57.6,68.2z M64.5,74.5c0,0.1-0.1,0.3-0.2,0.4
				S64.1,75,63.9,75h-9c-0.1,0-0.3,0-0.4-0.1s-0.1-0.2-0.1-0.4V69h1.2c-0.1,0.4-0.2,0.7-0.2,1.1c0,1.1,0.4,2,1.2,2.8
				c0.8,0.8,1.7,1.1,2.9,1.1c0.7,0,1.4-0.2,2-0.5c0.6-0.4,1.1-0.8,1.5-1.4s0.5-1.3,0.5-2c0-0.4-0.1-0.8-0.2-1.1h1.1L64.5,74.5
				L64.5,74.5z M64.5,67c0,0.2-0.1,0.3-0.2,0.4s-0.3,0.2-0.4,0.2h-1.5c-0.2,0-0.3-0.1-0.4-0.2s-0.2-0.3-0.2-0.4v-1.4
				c0-0.2,0.1-0.3,0.2-0.4c0.1-0.1,0.3-0.2,0.4-0.2h1.5c0.2,0,0.3,0.1,0.4,0.2s0.2,0.3,0.2,0.4V67z M97.2,63.8
				c-4.6-0.3-5.9-0.4-10.6,0c-1.4,0.1-2.4,1.8-2.5,3c-0.2,2.6-0.2,4,0,6.6c0.1,1.2,1.1,2.8,2.5,3c4.7,0.3,6.1,0.3,10.6,0
				c1.4-0.2,2.4-1.8,2.5-3c0.2-2.6,0.2-4.2,0-6.7C99.6,65.4,98.8,63.9,97.2,63.8z M89.4,73.3v-6.6l6.2,3.3L89.4,73.3z M128,64.4
				c-2.5-2.4-6.6-2.4-9.2,0c-2.5,2.4-2.6,6.4,0,8.8l4.6,4.4l4.6-4.4C130.6,70.7,130.6,66.8,128,64.4z M123.4,74.1
				c-3.1,0-5.6-2.4-5.6-5.3s2.5-5.3,5.6-5.3s5.6,2.4,5.6,5.3S126.5,74.1,123.4,74.1z M126.8,67.2c-0.7,0-1.4-0.1-2-0.1l0,0
				c-0.3-0.6-0.5-1.3-0.8-1.9c-0.1-0.3-0.6-0.3-0.8-0.1c-0.1,0.1-0.2,0.2-0.2,0.3c-0.3,0.6-0.5,1.2-0.8,1.8
				c-0.7,0.1-1.5,0.1-2.2,0.2c-0.3,0-0.5,0.4-0.4,0.7c0,0.1,0.2,0.2,0.3,0.3c0.5,0.4,1,0.8,1.5,1.2c-0.2,0.7-0.4,1.4-0.5,2.1
				c0,0.2,0.1,0.4,0.2,0.5c0.2,0.1,0.4,0.1,0.6,0c0.6-0.4,1.2-0.7,1.8-1.1c0.1,0,0.1,0,0.1,0.1c0.5,0.3,1.1,0.6,1.6,1
				c0.1,0.1,0.2,0.1,0.3,0.1c0.4,0,0.6-0.4,0.5-0.7c-0.2-0.6-0.3-1.3-0.5-1.9l0,0c0.5-0.4,1.1-0.9,1.6-1.3c0.2-0.1,0.2-0.4,0.1-0.6
				C127.2,67.3,127,67.2,126.8,67.2z"/>
		</g>
	</g>
	<g>
		<g>
			<path class="st1" d="M-0.4,80.5h-2.2c-2.4,0-4,1.4-4,3.7v1.7h-2.2c-0.2,0-0.3,0.1-0.3,0.3v2.5c0,0.2,0.2,0.3,0.3,0.3h2.2v6.2
				c0,0.2,0.2,0.3,0.3,0.3h2.8c0.2,0,0.3-0.1,0.3-0.3V89h2.5c0.2,0,0.3-0.1,0.3-0.3v-2.5c0-0.1,0-0.2-0.1-0.2
				c-0.1-0.1-0.2-0.1-0.2-0.1h-2.4v-1.4c0-0.7,0.2-1,1.2-1h1.5c0.2,0,0.3-0.1,0.3-0.3v-2.3C-0.1,80.6-0.2,80.5-0.4,80.5z M35.4,81.7
				c-0.7,0.4-1.5,0.7-2.2,0.8c-0.7-0.7-1.5-1.1-2.5-1.1s-1.8,0.4-2.5,1c-0.7,0.7-1,1.5-1,2.5c0,0.3,0,0.6,0.1,0.8
				c-2.9-0.1-5.3-1.3-7.2-3.7c-0.3,0.6-0.5,1.2-0.5,1.8c0,1.2,0.5,2.2,1.6,3c-0.6-0.1-1.1-0.2-1.6-0.5c0,0.9,0.3,1.6,0.8,2.3
				c0.5,0.6,1.2,1.1,2,1.2C22.1,90,21.8,90,21.5,90s-0.5,0-0.6-0.1c0.2,0.7,0.6,1.3,1.2,1.8s1.3,0.7,2,0.7c-1.3,1-2.7,1.5-4.3,1.5
				c-0.4,0-0.7,0-0.9,0c1.6,1.1,3.4,1.6,5.4,1.6s3.8-0.5,5.4-1.6c1.6-1,2.7-2.3,3.4-3.8c0.7-1.5,1.1-3.1,1.1-4.7V85
				c0.7-0.5,1.3-1.2,1.7-1.8c-0.6,0.3-1.3,0.5-2,0.6C34.7,83.2,35.2,82.6,35.4,81.7z M64.3,81.5h-9.7c-0.5,0-0.8,0.2-1.2,0.5
				c-0.3,0.3-0.5,0.7-0.5,1.2v9.7c0,0.5,0.2,0.8,0.5,1.2c0.3,0.3,0.7,0.5,1.2,0.5h9.7c0.5,0,0.8-0.2,1.2-0.5
				c0.3-0.3,0.5-0.7,0.5-1.2v-9.7c0-0.5-0.2-0.8-0.5-1.2C65.1,81.6,64.7,81.5,64.3,81.5z M57.6,86.2c0.5-0.5,1.1-0.7,1.8-0.7
				c0.7,0,1.3,0.2,1.8,0.7S62,87.3,62,88s-0.3,1.3-0.8,1.8s-1.1,0.7-1.8,0.7c-0.7,0-1.3-0.2-1.8-0.7s-0.8-1.1-0.8-1.8
				C56.8,87.2,57.1,86.7,57.6,86.2z M64.5,92.5c0,0.1-0.1,0.3-0.2,0.4S64.1,93,63.9,93h-9c-0.1,0-0.3,0-0.4-0.1s-0.1-0.2-0.1-0.4V87
				h1.2c-0.1,0.4-0.2,0.7-0.2,1.1c0,1.1,0.4,2,1.2,2.8c0.8,0.8,1.7,1.1,2.9,1.1c0.7,0,1.4-0.2,2-0.5s1.1-0.8,1.5-1.4s0.5-1.3,0.5-2
				c0-0.4-0.1-0.8-0.2-1.1h1.1L64.5,92.5L64.5,92.5z M64.5,84.9c0,0.2-0.1,0.3-0.2,0.4s-0.3,0.2-0.4,0.2h-1.5
				c-0.2,0-0.3-0.1-0.4-0.2s-0.2-0.3-0.2-0.4v-1.4c0-0.2,0.1-0.3,0.2-0.4c0.1-0.1,0.3-0.2,0.4-0.2h1.5c0.2,0,0.3,0.1,0.4,0.2
				s0.2,0.3,0.2,0.4V84.9z M97.2,81.7c-4.6-0.3-5.9-0.4-10.6,0c-1.4,0.1-2.4,1.8-2.5,3c-0.2,2.6-0.2,4,0,6.6c0.1,1.2,1.1,2.8,2.5,3
				c4.7,0.3,6.1,0.3,10.6,0c1.4-0.2,2.4-1.8,2.5-3c0.2-2.6,0.2-4.2,0-6.7C99.6,83.3,98.8,81.8,97.2,81.7z M89.4,91.2v-6.6l6.2,3.3
				L89.4,91.2z M128,82.3c-2.5-2.4-6.6-2.4-9.2,0c-2.5,2.4-2.6,6.4,0,8.8l4.6,4.4l4.6-4.4C130.6,88.6,130.6,84.7,128,82.3z
				 M123.4,92c-3.1,0-5.6-2.4-5.6-5.3s2.5-5.3,5.6-5.3s5.6,2.4,5.6,5.3S126.5,92,123.4,92z M126.8,85.1c-0.7,0-1.4-0.1-2-0.1l0,0
				c-0.3-0.6-0.5-1.3-0.8-1.9c-0.1-0.3-0.6-0.3-0.8-0.1c-0.1,0.1-0.2,0.2-0.2,0.3c-0.3,0.6-0.5,1.2-0.8,1.8
				c-0.7,0.1-1.5,0.1-2.2,0.2c-0.3,0-0.5,0.4-0.4,0.7c0,0.1,0.2,0.2,0.3,0.3c0.5,0.4,1,0.8,1.5,1.2c-0.2,0.7-0.4,1.4-0.5,2.1
				c0,0.2,0.1,0.4,0.2,0.5c0.2,0.1,0.4,0.1,0.6,0c0.6-0.4,1.2-0.7,1.8-1.1c0.1,0,0.1,0,0.1,0.1c0.5,0.3,1.1,0.6,1.6,1
				c0.1,0.1,0.2,0.1,0.3,0.1c0.4,0,0.6-0.4,0.5-0.7c-0.2-0.6-0.3-1.3-0.5-1.9l0,0c0.5-0.4,1.1-0.9,1.6-1.3c0.2-0.1,0.2-0.4,0.1-0.6
				C127.2,85.3,127,85.1,126.8,85.1z"/>
		</g>
	</g>
	<g>
		<g>
			<path class="st0" d="M-49,62.9v-3.7c0,0-6.6,0.1-7.3,7.4h3.7C-52.7,66.6-52.9,63.1-49,62.9z M-54.4,67.4L-54.4,67.4h-0.2
				c-3.1,0-5.4,4.5-5.4,4.5l2.1,1c1.9-2.9,3-3.2,3.4-3.2c0.1,0,0.1,0,0.1,0s0,0,0.1,0c0.4,0,1.5,0.3,3.4,3.2l2.1-1
				C-49,71.9-51.3,67.4-54.4,67.4z M-22.5,66.3h3.7c-0.8-7.3-7.4-7.3-7.4-7.3v3.7C-22.4,62.9-22.5,66.3-22.5,66.3z M-20.6,67.1h-0.1
				h-0.1c-3.1,0-5.4,4.5-5.4,4.5l2.1,1c1.9-2.9,3-3.2,3.4-3.2c0.1,0,0.1,0,0.1,0s0,0,0.1,0c0.4,0,1.5,0.3,3.4,3.2l2.1-1
				C-15.1,71.6-17.4,67.1-20.6,67.1z M-29.6,36.5H-37h-0.4h-0.4h-0.4h-7.3c-1.5,0-2.8,1.3-2.8,2.8l1,10.5c0,1.6,1.2,2.8,2.8,2.8
				l7,1.1l0,0l0,0l7-1.1c1.5,0,2.8-1.3,2.8-2.8l1-10.5C-26.9,37.8-28.1,36.5-29.6,36.5z M-42.8,49.3c-1.3,0-2.4-1.5-2.4-3.4
				s1.1-3.4,2.4-3.4s2.4,1.5,2.4,3.4S-41.5,49.3-42.8,49.3z M-32.3,49.3c-1.4,0-2.5-1-2.5-2.3s1.1-2.3,2.5-2.3c1.4,0,2.5,1,2.5,2.3
				S-31,49.3-32.3,49.3z M-31,84.7V83c0-0.2-0.2-0.4-0.4-0.4h-3.9c-0.2,0-0.4,0.2-0.4,0.4v1.7c0,0.2,0.2,0.4,0.4,0.4h3.9
				C-31.1,85.1-31,84.9-31,84.7z M-32,85.8c0-0.1-0.1-0.2-0.2-0.2h-2.2c-0.1,0-0.2,0.1-0.2,0.2v1c0,0.1,0.1,0.2,0.2,0.2h2.2
				c0.1,0,0.2-0.1,0.2-0.2V85.8z M-32,88.1c0-0.1-0.1-0.2-0.2-0.2h-2.2c-0.1,0-0.2,0.1-0.2,0.2v1c0,0.1,0.1,0.2,0.2,0.2h2.2
				c0.1,0,0.2-0.1,0.2-0.2V88.1z M-32.2,90.1h-2.2c-0.1,0-0.2,0.1-0.2,0.2v1c0,0.1,0.1,0.2,0.2,0.2h2.2c0.1,0,0.2-0.1,0.2-0.2v-1
				C-32,90.2-32.1,90.1-32.2,90.1z M-39.6,84.7V83c0-0.2-0.2-0.4-0.4-0.4h-3.9c-0.2,0-0.4,0.2-0.4,0.4v1.7c0,0.2,0.2,0.4,0.4,0.4
				h3.9C-39.8,85.1-39.6,84.9-39.6,84.7z M-40.6,85.8c0-0.1-0.1-0.2-0.2-0.2h-2.3c-0.1,0-0.2,0.1-0.2,0.2v1c0,0.1,0.1,0.2,0.2,0.2
				h2.2c0.1,0,0.2-0.1,0.2-0.2L-40.6,85.8L-40.6,85.8z M-40.6,88.1c0-0.1-0.1-0.2-0.2-0.2h-2.3c-0.1,0-0.2,0.1-0.2,0.2v1
				c0,0.1,0.1,0.2,0.2,0.2h2.2c0.1,0,0.2-0.1,0.2-0.2L-40.6,88.1L-40.6,88.1z M-40.8,90.1h-2.3c-0.1,0-0.2,0.1-0.2,0.2v1
				c0,0.1,0.1,0.2,0.2,0.2h2.2c0.1,0,0.2-0.1,0.2-0.2v-1C-40.6,90.2-40.7,90.1-40.8,90.1z M-39.1,94.1h-0.4c-0.2-1.1-1.2-2-2.4-2
				c-1.2,0-2.1,0.9-2.4,2h-0.4c-0.3,0-0.5,0.2-0.5,0.4v1.6c0,0.2,0.2,0.4,0.5,0.4h5.6c0.3,0,0.5-0.2,0.5-0.4v-1.6
				C-38.6,94.3-38.8,94.1-39.1,94.1z M-30.5,94.1h-0.4c-0.2-1.1-1.2-2-2.4-2c-1.2,0-2.1,0.9-2.4,2h-0.4c-0.3,0-0.5,0.2-0.5,0.4v1.6
				c0,0.2,0.2,0.4,0.5,0.4h5.6c0.3,0,0.5-0.2,0.5-0.4v-1.6C-30,94.3-30.2,94.1-30.5,94.1z M-38.8,61.8l2.4,1l2.4-1l2.1,0.9v-2.1
				h-11.5V62l2.1,0.8L-38.8,61.8z M-31.9,63.5l-2.1-0.8l-2.4,1l-2.4-1l-2.4,1l-2.1-0.9v2.3h11.5L-31.9,63.5L-31.9,63.5z M-30.6,56.2
				h-5.5h-3h-5.5c-2.1,0-3.7,1.7-3.7,3.8l2.8,17.6c0,2.1,1.7,3.8,3.7,3.8h2.7h3h2.7c2.1,0,3.7-1.7,3.7-3.8l2.8-17.6
				C-26.9,57.9-28.6,56.2-30.6,56.2z M-42.8,71.5c-0.9,0-1.6-0.7-1.6-1.6s0.7-1.6,1.6-1.6c0.9,0,1.6,0.7,1.6,1.6
				S-41.9,71.5-42.8,71.5z M-31.2,65.8h-12.9v-5.9h12.9C-31.2,59.9-31.2,65.8-31.2,65.8z"/>
		</g>
	</g>
	<g id="Winlogo">
		<polygon class="st0" points="54.9,49.3 54.9,41.2 45.6,42.5 45.6,49.3 		"/>
		<polygon class="st0" points="44.9,42.6 38.2,43.6 38.2,49.3 44.9,49.3 		"/>
		<polygon class="st0" points="38.2,50 38.2,55.7 44.9,56.7 44.9,50 		"/>
		<polygon class="st0" points="45.6,56.8 54.9,58.2 54.9,50 45.6,50 		"/>
	</g>
	<g>
		<path class="st0" d="M69.6,40.4c1.4-1.8,3.3-1.8,3.3-1.8s0.3,1.7-1.1,3.3c-1.5,1.7-3.1,1.5-3.1,1.5S68.4,42,69.6,40.4z"/>
		<path class="st0" d="M68.8,44.5c0.7,0,2-1,3.7-1c2.9,0,4.1,2.1,4.1,2.1s-2.3,1.2-2.3,4c0,3.2,2.8,4.2,2.8,4.2s-2,5.5-4.6,5.5
			c-1.2,0-2.2-0.8-3.4-0.8c-1.3,0-2.6,0.9-3.5,0.9c-2.4,0-5.5-5.2-5.5-9.5c0-4.1,2.6-6.3,5-6.3C66.8,43.6,68,44.5,68.8,44.5z"/>
	</g>
	<g>
		<g>
			<path class="st0" d="M18.5,47.1v1.2h9.8l-1,5.5H17.1L14,42.9h-2.9v1.2h2L16.2,55h12.1l1.5-7.9H18.5L18.5,47.1z M17.9,56.2
				c-1,0-1.9,0.8-1.9,1.8s0.8,1.8,1.9,1.8c1,0,1.9-0.8,1.9-1.8C19.7,57,18.9,56.2,17.9,56.2z M17.9,58.6c-0.3,0-0.6-0.3-0.6-0.6
				s0.3-0.6,0.6-0.6s0.6,0.3,0.6,0.6C18.5,58.4,18.2,58.6,17.9,58.6z M25.9,56.2c-1,0-1.9,0.8-1.9,1.8s0.8,1.8,1.9,1.8
				c1,0,1.9-0.8,1.9-1.8S26.9,56.2,25.9,56.2z M25.9,58.6c-0.3,0-0.6-0.3-0.6-0.6s0.3-0.6,0.6-0.6s0.6,0.3,0.6,0.6
				C26.5,58.4,26.2,58.6,25.9,58.6z"/>
		</g>
	</g>
	<g>
		<g>
			<g>
				<path class="st0" d="M-1.2,56.7c-3.8,0-6.9-3.1-6.9-6.9s3.1-6.9,6.9-6.9s6.9,3.1,6.9,6.9C5.7,53.6,2.6,56.7-1.2,56.7z
					 M-1.2,43.9c-3.2,0-5.8,2.6-5.8,5.8s2.6,5.8,5.8,5.8s5.8-2.6,5.8-5.8S2,43.9-1.2,43.9z"/>
			</g>
		</g>
		<g>
			<path class="st0" d="M7.3,59.9c-0.4,0-0.8-0.2-1.1-0.5l-3-2.9l0.7-0.8l3,2.9c0.2,0.2,0.6,0.2,0.8,0c0.1-0.1,0.2-0.2,0.2-0.4
				s-0.1-0.3-0.2-0.4l-2.9-3l0.8-0.7l2.9,3C8.8,57.4,9,57.8,9,58.2S8.8,59,8.5,59.3C8.1,59.7,7.7,59.9,7.3,59.9z"/>
		</g>
	</g>
	<g id="Icon_Phone_3_">
		<g>
			<path class="st0" d="M94.5,51.2c-0.9,0.6-1.6,1.8-2.1,2.8c-2.8-1.3-5.1-3.5-6.4-6.4c1-0.5,2.2-1.2,2.8-2.1c-0.2-2-1.3-3.9-2.8-5
				c-2,0.9-3.5,2.6-3.5,5c0,6.4,5.7,12,11.7,12c2.4,0,4.4-1.5,5.3-3.5C98.5,52.5,96.5,51.4,94.5,51.2z"/>
		</g>
	</g>
	<g>
		<path class="st0" d="M132,55.6l-0.3-3.1c0-0.1-0.1-0.4-0.3-0.5l-3.2-2.2c-0.1-0.1-0.4-0.1-0.5-0.1l-1.7,0.7c-0.1,0-0.4,0-0.5-0.1
			l-5.6-6.1c-0.1-0.1-0.1-0.4-0.1-0.5l0.7-1.9c0-0.1,0-0.4,0-0.5l-2-3.5c-0.1-0.1-0.3-0.3-0.5-0.3l-2.8-0.3c-0.1,0-0.3,0.1-0.3,0.3
			v1.9c0,0.1,0.1,0.4,0.3,0.4l1.5,0.1c0.1,0,0.4,0.1,0.5,0.3l0.8,1.5c0.1,0.1,0.1,0.4,0,0.5l-0.3,0.8c0,0.1-0.3,0.4-0.3,0.5
			l-0.5,0.5c-0.1,0.1-0.4,0.3-0.5,0.4l-0.8,0.3c-0.1,0-0.4,0-0.5-0.1l-1.3-0.9c-0.1-0.1-0.3-0.3-0.3-0.5l-0.1-1.7c0-0.1,0-0.3,0-0.4
			l0,0c0,0-0.1,0-0.3,0H111c-0.1,0-0.3,0.1-0.3,0.3l0.3,3c0,0.1,0.1,0.4,0.3,0.5l3.2,2.2c0.1,0.1,0.4,0.1,0.5,0.1l1.7-0.7
			c0.1,0,0.4,0,0.5,0.1l5.6,6.1c0.1,0.1,0.1,0.4,0.1,0.5l-0.7,1.9c0,0.1,0,0.4,0,0.5l2,3.4c0.1,0.1,0.3,0.3,0.5,0.3l2.8,0.3
			c0.1,0,0.3-0.1,0.3-0.3v-1.2c0-0.1-0.1-0.4-0.3-0.4l-1.5-0.1c-0.1,0-0.4-0.1-0.5-0.3l-0.8-1.5c-0.1-0.1-0.1-0.4,0-0.5l0.5-1.6
			c0-0.1,0.3-0.4,0.4-0.4l1.5-0.5c0.1,0,0.4,0,0.5,0.1l1.3,0.9c0.1,0.1,0.3,0.3,0.3,0.5l0.1,1.7c0,0.1,0,0.3,0,0.4l0,0
			c0,0,0.1,0,0.3,0h1.7C131.9,55.9,132,55.8,132,55.6z"/>
		<path class="st0" d="M113,50.7c-0.1-0.3-0.4-0.4-0.7-0.4c-0.4-0.1-0.9,0-1.2,0.3l-0.9,0.8l-4.4-4.8l-0.9-2.3l-3.2-2.4l-0.8,0.7
			l1.9,3.4L105,47l4.4,4.8l-0.9,0.8c-0.5,0.4-0.7,1.2-0.1,1.7l6.6,7.3c0.1,0.3,0.4,0.4,0.7,0.4c0.4,0.1,0.9,0,1.2-0.3l2.7-2.2
			c0.5-0.4,0.7-1.2,0.1-1.7L113,50.7z"/>
	</g>
</g>
</svg>
